<?xml version="1.0" encoding="UTF-8" standalone="no"?>
<svg width="79px" height="70px" viewBox="0 0 79 70" version="1.1" xmlns="http://www.w3.org/2000/svg" xmlns:xlink="http://www.w3.org/1999/xlink" xmlns:sketch="http://www.bohemiancoding.com/sketch/ns">
    <!-- Generator: sketchtool 3.4 (356) - http://www.bohemiancoding.com/sketch -->
    <title>SoftServe Blog</title>
    <desc>Created with sketchtool.</desc>
    <defs></defs>
    <g id="Icons" stroke="none" stroke-width="1" fill="none" fill-rule="evenodd" sketch:type="MSPage">
        <g sketch:type="MSArtboardGroup" transform="translate(-150.000000, -289.000000)" id="SoftServe-Blog" fill="#00B4D5">
            <g sketch:type="MSLayerGroup" transform="translate(150.000000, 289.000000)">
                <path d="M39.958,69.265 C39.419,69.265 38.982,68.828 38.982,68.289 C38.982,62.938 23.777,56.976 1.958,56.976 C1.419,56.976 0.982,56.539 0.982,56 L0.982,1 C0.982,0.461 1.419,0.024 1.958,0.024 C18.776,0.024 35.773,3.206 39.96,9.323 C44.152,3.206 61.178,0.024 78.024,0.024 C78.563,0.024 79,0.461 79,1 L79,56 C79,56.539 78.563,56.976 78.024,56.976 C56.166,56.976 40.935,62.938 40.935,68.289 C40.935,68.828 40.498,69.265 39.958,69.265 L39.958,69.265 Z M2.935,55.028 C21.277,55.175 36.109,59.435 39.96,65.268 C43.816,59.435 58.673,55.174 77.048,55.028 L77.048,1.98 C59.491,2.121 40.935,6.043 40.935,12.309 C40.935,12.848 40.498,13.285 39.958,13.285 C39.419,13.285 38.982,12.848 38.982,12.309 C38.982,6.043 20.459,2.121 2.935,1.98 L2.935,55.028 L2.935,55.028 Z" id="Fill-1" sketch:type="MSShapeGroup"></path>
                <path d="M39.958,69.265 C39.419,69.265 38.982,68.828 38.982,68.289 L38.982,12.309 C38.982,11.77 39.419,11.333 39.958,11.333 C40.498,11.333 40.935,11.77 40.935,12.309 L40.935,68.289 C40.935,68.828 40.498,69.265 39.958,69.265" id="Fill-2" sketch:type="MSShapeGroup"></path>
            </g>
        </g>
    </g>
</svg>