<?xml version="1.0" encoding="UTF-8"?>
<!-- Generator: Adobe Illustrator 16.0.0, SVG Export Plug-In . SVG Version: 6.00 Build 0)  -->
<!DOCTYPE svg PUBLIC "-//W3C//DTD SVG 1.1//EN" "http://www.w3.org/Graphics/SVG/1.1/DTD/svg11.dtd">
<svg version="1.1" id="Шар_1" xmlns="http://www.w3.org/2000/svg" xmlns:xlink="http://www.w3.org/1999/xlink" x="0px" y="0px" width="382px" height="45px" viewBox="0 0 382 45" enable-background="new 0 0 382 45" xml:space="preserve">
<g>
	<g>
		<g>
			<path fill="#03B5D5" d="M16.3129883,26.1728516c-3.581543-1.3984375-6.6743164-2.6044922-6.6743164-5.3891602     c0-3.21875,2.9311523-4.3666992,5.675293-4.3666992c4.7460938,0,7.2661133,2.621582,7.2910156,2.6494141l0.2431641,0.2578125     l2.1235352-3.5634766l-0.1298828-0.1464844c-0.1220703-0.1357422-3.0644531-3.3564453-9.4091797-3.3564453     c-5.0512695,0-10.4873047,2.6669922-10.4873047,8.5258789c0,5.5395508,5.0039063,7.5209961,9.4174805,9.2680664     c3.5869141,1.4208984,6.684082,2.6474609,6.684082,5.4082031c0,3.0996094-2.8793945,4.4863281-5.7329102,4.4863281     c-5.3955078,0-8.684082-3.5019531-8.7167969-3.5380859l-0.2172852-0.2353516l-2.5229492,3.3417969l0.1435547,0.1621094     C4.0415039,39.7216797,5.0019531,40.8056641,6.875,41.8994141c1.722168,1.0068359,4.574707,2.2070313,8.3789063,2.2070313     c6.0771484,0,10.487793-3.6376953,10.487793-8.6464844C25.7416992,29.8515625,20.7319336,27.8964844,16.3129883,26.1728516z"/>
			<path fill="#03B5D5" d="M46.6582031,12.2578125c-9.0117188,0-16.0722656,6.9291992-16.0722656,15.7763672     c0,9.0117188,7.0605469,16.0722656,16.0722656,16.0722656c9.012207,0,16.0717773-7.0605469,16.0717773-16.0722656     C62.7299805,19.1870117,55.6704102,12.2578125,46.6582031,12.2578125z M58.0371094,28.0341797     c0,6.6796875-4.9990234,11.9121094-11.3789063,11.9121094c-6.3808594,0-11.3793945-5.2324219-11.3793945-11.9121094     c0-6.4829102,4.9985352-11.5581055,11.3793945-11.5581055C53.0380859,16.4760742,58.0371094,21.5512695,58.0371094,28.0341797z"/>
			<path fill="#03B5D5" d="M82.6108398,0.9897461c-0.0292969-0.0058594-0.7480469-0.121582-1.8842773-0.121582     c-3.1845703,0-10.5913086,1.1069336-10.5913086,11.362793v1.1577148h-4.0703125v3.9160156h4.0703125v26.1113281h4.5683594     V17.3046875h7.6552734v-3.9160156h-7.6552734V12.230957c0-2.6928711,0.8383789-7.2094727,6.4389648-7.2094727     c0.7910156,0,1.3671875,0.1118164,1.3730469,0.1137695l0.3178711,0.0629883V1.0273438L82.6108398,0.9897461z"/>
			<path fill="#03B5D5" d="M104.184082,39.7089844l-0.331543,0.0712891     c-0.0043945,0.0019531-0.5297852,0.1152344-1.3334961,0.1152344c-2.4521484,0-6.5673828-1.0107422-6.5673828-7.7763672     V17.3896484h7.6269531v-3.9931641h-7.6269531V4.6191406h-4.5996094v8.7773438h-4.0556641v3.9931641h3.9946289v15.1513672     c0,10.0859375,6.8066406,11.5917969,10.8662109,11.5917969c1.1005859,0,1.7753906-0.1201172,1.8027344-0.125l0.2241211-0.0410156     V39.7089844z"/>
		</g>
		<g>
			<path fill="#272B5D" d="M113.4785156,34.3496094c0,0,3.3398438,3.3408203,8.2900391,3.3408203     c2.1484375,0,3.9956055-0.9541016,3.9956055-2.7431641c0-4.5341797-14.7900391-3.9365234-14.7900391-13.7182617     c0-5.6655273,5.0703125-8.9462891,11.6293945-8.9462891c6.859375,0,10.1977539,3.4589844,10.1977539,3.4589844     l-2.8022461,5.6069336c0,0-2.8022461-2.6240234-7.4550781-2.6240234c-1.9672852,0-3.8754883,0.8349609-3.8754883,2.7426758     c0,4.2944336,14.7900391,3.7563477,14.7900391,13.5385742c0,5.0683594-4.4130859,9.1240234-11.6293945,9.1240234     c-7.5742188,0-11.8105469-4.4726563-11.8105469-4.4726563L113.4785156,34.3496094z"/>
			<path fill="#272B5D" d="M153.8701172,12.2827148c8.7675781,0,13.4794922,6.3818359,13.4794922,14.434082     c0,0.8935547-0.1787109,2.9228516-0.1787109,2.9228516h-20.9936523c0.4755859,5.3076172,4.5932617,8.0507813,9.125,8.0507813     c4.8896484,0,8.7661133-3.3408203,8.7661133-3.3408203l2.9228516,5.4277344c0,0-4.6513672,4.3525391-12.2265625,4.3525391     c-10.0791016,0-16.3413086-7.2744141-16.3413086-15.9228516     C138.4233398,18.8432617,144.8056641,12.2827148,153.8701172,12.2827148z M159.7158203,24.4501953     c-0.1201172-4.1147461-2.6850586-6.3232422-6.0249023-6.3232422c-3.8754883,0-6.5595703,2.3867188-7.2758789,6.3232422     H159.7158203z"/>
			<path fill="#272B5D" d="M174.9731445,12.9990234h7.2763672v5.2485352c0,1.1323242-0.1186523,2.1459961-0.1186523,2.1459961     h0.1186523c1.3725586-4.3530273,5.0112305-7.8120117,9.6621094-7.8120117c0.715332,0,1.371582,0.1186523,1.371582,0.1186523     V20.15625c0,0-0.7753906-0.1196289-1.7890625-0.1196289c-3.2211914,0-6.859375,1.8481445-8.2905273,6.3813477     c-0.4765625,1.4912109-0.6542969,3.1601563-0.6542969,4.9501953v12.0478516h-7.5761719V12.9990234z"/>
			<path fill="#272B5D" d="M196.5820313,12.9990234h7.9921875l6.3203125,18.8447266     c0.5976563,1.7910156,1.015625,3.8125,1.0722656,3.8125h0.1210938c0.0605469,0,0.4765625-2.0214844,1.0742188-3.8125     l6.3222656-18.8447266h7.9902344l-10.9140625,30.4169922h-8.9453125L196.5820313,12.9990234z"/>
			<path fill="#272B5D" d="M244.7910156,12.2827148c8.765625,0,13.4785156,6.3818359,13.4785156,14.434082     c0,0.8935547-0.1796875,2.9228516-0.1796875,2.9228516h-20.9941406c0.4785156,5.3076172,4.59375,8.0507813,9.125,8.0507813     c4.890625,0,8.7675781-3.3408203,8.7675781-3.3408203l2.9238281,5.4277344c0,0-4.6542969,4.3525391-12.2265625,4.3525391     c-10.0800781,0-16.34375-7.2744141-16.34375-15.9228516C229.3417969,18.8432617,235.7246094,12.2827148,244.7910156,12.2827148z      M250.6347656,24.4501953c-0.1191406-4.1147461-2.6835938-6.3232422-6.0234375-6.3232422     c-3.8769531,0-6.5605469,2.3867188-7.2773438,6.3232422H250.6347656z"/>
		</g>
	</g>
	<g>
		<g>
			<path fill="#272B5D" d="M275.28125,12.737793c-2.9863281,0-5.0722656,2.1831055-5.0722656,5.3105469     c0,3.0771484,2.2578125,5.3110352,5.3710938,5.3110352c2.3925781,0,3.9101563-1.4287109,3.9238281-1.4438477l0.0332031-0.0307617     l-0.8515625-1.5102539l-0.0527344,0.0507813c-0.0136719,0.0107422-1.2539063,1.152832-2.9335938,1.152832     c-1.484375,0-3.2539063-0.8378906-3.390625-3.1953125h7.3085938l0.0039063-0.0507813     c0.0019531-0.0229492,0.0605469-0.5810547,0.0605469-0.8398438C279.6816406,14.6040039,277.953125,12.737793,275.28125,12.737793     z M275.2421875,14.3789063c1.0878906,0,2.2714844,0.6425781,2.359375,2.4418945h-5.2246094     C272.6582031,15.3125,273.75,14.3789063,275.2421875,14.3789063z"/>
			<path fill="#272B5D" d="M287.5605469,17.9086914l3.2695313-4.9335938h-2.3398438l-1.8808594,3.0805664     c-0.1171875,0.1923828-0.25,0.4321289-0.3066406,0.5400391c-0.0605469-0.1079102-0.1894531-0.3476563-0.3085938-0.5400391     l-1.8808594-3.0805664h-2.3398438l3.2695313,4.9335938l-3.3886719,5.121582l-0.0585938,0.0917969h2.3183594l2.1210938-3.3793945     c0.0996094-0.1733398,0.2128906-0.390625,0.2675781-0.4951172c0.0546875,0.1044922,0.1640625,0.3217773,0.2675781,0.4960938     l2.1191406,3.378418h2.3183594L287.5605469,17.9086914z"/>
			<path fill="#272B5D" d="M298.7890625,12.737793c-2.0898438,0-3.0585938,1.2583008-3.3359375,1.7036133     c0.0117188-0.1381836,0.0234375-0.3393555,0.0234375-0.5556641v-0.9106445h-1.8789063v14.1108398h2.0371094v-4.5585938     c0-0.3037109-0.0136719-0.5537109-0.0234375-0.7075195c0.1035156,0.1557617,0.3125,0.4291992,0.640625,0.7026367     c0.4570313,0.3808594,1.2460938,0.8369141,2.3984375,0.8369141c2.7070313,0,4.5976563-2.184082,4.5976563-5.3110352     C303.2480469,14.8710938,301.4550781,12.737793,298.7890625,12.737793z M301.1894531,18.0678711     c0,2.0776367-1.1679688,3.5317383-2.8359375,3.5317383c-1.8242188,0-2.7773438-1.7680664-2.7773438-3.5126953     c0-1.7158203,0.7441406-3.5488281,2.8359375-3.5488281C300.0742188,14.5380859,301.1894531,15.9560547,301.1894531,18.0678711z"/>
			<path fill="#272B5D" d="M310.9882813,12.737793c-2.984375,0-5.0722656,2.1831055-5.0722656,5.3105469     c0,3.0771484,2.2578125,5.3110352,5.3691406,5.3110352c2.3945313,0,3.9101563-1.4287109,3.9257813-1.4438477l0.0332031-0.0307617     l-0.8515625-1.5102539l-0.0527344,0.0507813c-0.0136719,0.0107422-1.2519531,1.152832-2.9355469,1.152832     c-1.484375,0-3.2519531-0.8378906-3.3867188-3.1953125h7.3046875l0.0058594-0.0507813     c0.0019531-0.0229492,0.0585938-0.5810547,0.0585938-0.8398438     C315.3867188,14.6040039,313.6601563,12.737793,310.9882813,12.737793z M310.9492188,14.3789063     c1.0878906,0,2.2714844,0.6425781,2.3574219,2.4418945h-5.2246094     C308.3652344,15.3125,309.4570313,14.3789063,310.9492188,14.3789063z"/>
			<path fill="#272B5D" d="M324.2382813,12.8964844c-0.0097656-0.0009766-0.2441406-0.0400391-0.5058594-0.0400391     c-1.3691406,0-2.5722656,0.9213867-3.1289063,2.3730469c0.0078125-0.1254883,0.015625-0.2836914,0.015625-0.4521484v-1.8022461     h-1.9785156v10.1469727h2.0390625v-4.1616211c0-0.6923828,0.0761719-1.2768555,0.234375-1.7871094     c0.4316406-1.4086914,1.515625-2.3183594,2.7597656-2.3183594c0.2871094,0,0.5390625,0.0576172,0.5410156,0.0576172     l0.0722656,0.0170898v-2.0244141L324.2382813,12.8964844z"/>
			<g>
				<rect x="326.8984375" y="12.9750977" fill="#272B5D" width="2.0371094" height="10.1469727"/>
				<rect x="326.8789063" y="9.0097656" fill="#272B5D" width="2.0566406" height="2.0791016"/>
			</g>
			<path fill="#272B5D" d="M337.1992188,12.737793c-2.9882813,0-5.0742188,2.1831055-5.0742188,5.3105469     c0,3.0771484,2.2578125,5.3110352,5.3691406,5.3110352c2.3945313,0,3.9121094-1.4287109,3.9257813-1.4438477l0.0332031-0.0307617     l-0.8515625-1.5102539l-0.0527344,0.0507813c-0.0136719,0.0107422-1.2519531,1.152832-2.9355469,1.152832     c-1.4824219,0-3.2519531-0.8378906-3.3867188-3.1953125h7.3046875l0.0058594-0.0507813     c0.0019531-0.0229492,0.0585938-0.5810547,0.0585938-0.8398438     C341.5957031,14.6040039,339.8691406,12.737793,337.1992188,12.737793z M337.1582031,14.3789063     c1.0878906,0,2.2714844,0.6425781,2.3574219,2.4418945h-5.2226563     C334.5742188,15.3125,335.6660156,14.3789063,337.1582031,14.3789063z"/>
			<path fill="#272B5D" d="M350.5390625,12.737793c-1.9238281,0-3.1835938,1.1191406-3.7324219,2.1518555     c0.0117188-0.137207,0.0214844-0.324707,0.0214844-0.5288086v-1.3857422h-1.9785156v10.1469727h2.0390625v-4.7563477     c0-0.5537109,0.0488281-0.9770508,0.1542969-1.3320313c0.421875-1.4682617,1.6484375-2.4169922,3.1171875-2.4169922     c1.6210938,0,1.8457031,1.1816406,1.8457031,2.4599609v6.0454102h2.0390625v-6.480957     C354.0449219,14.0131836,352.8964844,12.737793,350.5390625,12.737793z"/>
			<path fill="#272B5D" d="M365.7832031,20.190918l-0.0527344,0.0581055     c-0.0136719,0.0136719-1.2363281,1.3291016-3.0507813,1.3291016c-2.0234375,0-3.4921875-1.4926758-3.4921875-3.5507813     c0-2.0327148,1.4433594-3.5102539,3.4316406-3.5102539c1.6601563,0,2.7226563,1.1210938,2.7324219,1.1328125l0.0507813,0.0527344     l0.9765625-1.4453125l-0.0273438-0.0327148c-0.0136719-0.0151367-1.296875-1.4868164-3.8125-1.4868164     c-3.1445313,0-5.4296875,2.2329102-5.4296875,5.3105469c0,3.0771484,2.2851563,5.3110352,5.4296875,5.3110352     c2.6132813,0,4.0351563-1.6098633,4.0488281-1.6259766l0.0273438-0.0307617L365.7832031,20.190918z"/>
			<path fill="#272B5D" d="M373.7441406,12.737793c-2.9882813,0-5.0742188,2.1831055-5.0742188,5.3105469     c0,3.0771484,2.2578125,5.3110352,5.3710938,5.3110352c2.3945313,0,3.9082031-1.4287109,3.9257813-1.4438477l0.03125-0.0307617     l-0.8515625-1.5102539l-0.0546875,0.0507813c-0.0097656,0.0107422-1.2519531,1.152832-2.9335938,1.152832     c-1.4824219,0-3.2519531-0.8378906-3.3886719-3.1953125h7.3066406l0.0058594-0.0507813     c0.0039063-0.0229492,0.0605469-0.5810547,0.0605469-0.8398438     C378.1425781,14.6040039,376.4160156,12.737793,373.7441406,12.737793z M373.703125,14.3789063     c1.0878906,0,2.2714844,0.6425781,2.3574219,2.4418945h-5.2226563     C371.1191406,15.3125,372.2109375,14.3789063,373.703125,14.3789063z"/>
		</g>
		<g>
			<path fill="#272B5D" d="M282.8925781,33.0361328c-1.7089844,0-3.0351563,1.1328125-3.5761719,2.2207031     c-0.3671875-1.4746094-1.3925781-2.2207031-3.0449219-2.2207031c-1.5585938,0-2.8769531,1.0634766-3.4101563,2.1328125     c0.0097656-0.1357422,0.0195313-0.3164063,0.0195313-0.5097656v-1.3857422h-1.9785156v10.1455078h2.0371094v-4.6367188     c0-0.4072266,0.0136719-0.8818359,0.1171875-1.2919922c0.4160156-1.5771484,1.5214844-2.5947266,2.8203125-2.5947266     c1.3984375,0,1.6855469,0.9824219,1.6855469,2.4599609v6.0634766h2.0390625v-4.6367188     c0-0.5449219,0.0429688-0.9814453,0.1367188-1.3730469c0.3261719-1.25,1.3066406-2.5136719,2.7578125-2.5136719     c1.5175781,0,1.7265625,1.1816406,1.7265625,2.4599609v6.0634766h2.0390625v-6.4794922     C286.2617188,34.3115234,285.1582031,33.0361328,282.8925781,33.0361328z"/>
			<path fill="#272B5D" d="M293.7597656,33.0361328c-2.2929688,0-3.7675781,1.1914063-3.7832031,1.2021484l-0.0371094,0.0302734     l0.8496094,1.5078125l0.0527344-0.0419922c0.0136719-0.0097656,1.2519531-0.9570313,2.7597656-0.9570313     c1.4238281,0,2.1425781,0.7197266,2.1425781,2.140625v0.1220703h-0.3789063     c-4.0488281,0-6.1015625,1.1796875-6.1015625,3.5068359c0,2.0410156,1.7441406,3.1103516,3.4667969,3.1103516     c1.9765625,0,2.9023438-1.3466797,3.1738281-1.8398438c-0.0097656,0.1435547-0.0214844,0.3525391-0.0214844,0.5927734v1.0087891     h1.9003906v-6.4013672C297.7832031,34.4501953,296.3554688,33.0361328,293.7597656,33.0361328z M293.1445313,41.9951172     c-1.2519531,0-1.8242188-0.8007813-1.8242188-1.5478516c0-1.6542969,2.2871094-1.8447266,4.0078125-1.8447266h0.4375v0.2607422     C295.765625,40.7363281,294.4121094,41.9951172,293.1445313,41.9951172z"/>
			<path fill="#272B5D" d="M306.2558594,41.640625c-0.0039063,0-0.1777344,0.0390625-0.4453125,0.0390625     c-0.7773438,0-2.0839844-0.2861328-2.0839844-2.203125v-4.4023438h2.4199219v-1.6621094h-2.4199219v-2.8935547H301.75v2.8935547     h-1.3671875v1.6621094h1.3066406v4.6210938c0,1.4189453,0.5078125,3.8037109,3.9042969,3.8037109     c0.3964844,0,0.6699219-0.0390625,0.6816406-0.0410156l0.0488281-0.0068359V41.625L306.2558594,41.640625z"/>
			<path fill="#272B5D" d="M314.4257813,41.640625c-0.0019531,0-0.1757813,0.0390625-0.4433594,0.0390625     c-0.7792969,0-2.0839844-0.2861328-2.0839844-2.203125v-4.4023438h2.4199219v-1.6621094h-2.4199219v-2.8935547h-1.9785156     v2.8935547h-1.3671875v1.6621094h1.3085938v4.6210938c0,1.4189453,0.5078125,3.8037109,3.9042969,3.8037109     c0.3964844,0,0.6679688-0.0390625,0.6816406-0.0410156l0.046875-0.0068359V41.625L314.4257813,41.640625z"/>
			<path fill="#272B5D" d="M321.4824219,33.0361328c-2.9882813,0-5.0742188,2.1826172-5.0742188,5.3105469     c0,3.0771484,2.2597656,5.3105469,5.3710938,5.3105469c2.3945313,0,3.9101563-1.4287109,3.9257813-1.4433594l0.03125-0.0302734     l-0.8496094-1.5107422l-0.0546875,0.0488281c-0.0097656,0.0126953-1.2519531,1.1552734-2.9335938,1.1552734     c-1.4863281,0-3.2539063-0.8378906-3.3886719-3.1953125h7.3066406l0.0058594-0.0507813     c0.0019531-0.0244141,0.0566406-0.5820313,0.0566406-0.8398438     C325.8789063,34.9023438,324.1542969,33.0361328,321.4824219,33.0361328z M321.4414063,34.6777344     c1.0878906,0,2.2714844,0.6425781,2.359375,2.4414063h-5.2246094     C318.859375,35.6103516,319.953125,34.6777344,321.4414063,34.6777344z"/>
			<path fill="#272B5D" d="M334.7304688,33.1953125c-0.0078125-0.0009766-0.2441406-0.0400391-0.5039063-0.0400391     c-1.3710938,0-2.5722656,0.9208984-3.1269531,2.3720703c0.0078125-0.1269531,0.0117188-0.2832031,0.0117188-0.4511719v-1.8027344     h-1.9765625v10.1455078h2.0371094v-4.1601563c0-0.6933594,0.078125-1.2763672,0.2363281-1.7871094     c0.4316406-1.4091797,1.515625-2.3183594,2.7597656-2.3183594c0.2871094,0,0.5390625,0.0585938,0.5410156,0.0585938     l0.0722656,0.015625v-2.0234375L334.7304688,33.1953125z"/>
			<path fill="#272B5D" d="M341.1914063,37.4960938c-1.0566406-0.4199219-1.96875-0.78125-1.96875-1.5078125     c0-0.8642578,0.8203125-1.1728516,1.5878906-1.1728516c1.5429688,0,2.4277344,0.8671875,2.4355469,0.8759766l0.0546875,0.0546875     l0.8300781-1.5517578l-0.0273438-0.0302734c-0.0117188-0.0107422-1.0722656-1.1279297-3.2753906-1.1279297     s-3.6835938,1.1699219-3.6835938,2.9111328c0,1.9072266,1.6777344,2.5849609,3.1582031,3.1816406     c1.0703125,0.4326172,1.9960938,0.8046875,1.9960938,1.5576172c0,0.78125-0.8085938,1.1904297-1.609375,1.1904297     c-1.6972656,0-2.8203125-1.140625-2.8300781-1.1523438l-0.0488281-0.0507813L336.8125,42.1376953l0.0292969,0.0332031     c0.0136719,0.0146484,1.3925781,1.4863281,3.8476563,1.4863281c2.171875,0,3.6875-1.2216797,3.6875-2.9707031     C344.3769531,38.7568359,342.609375,38.0556641,341.1914063,37.4960938z"/>
		</g>
	</g>
</g>
</svg>